HIERARCHY
ROOT Hips
{
  OFFSET 298.511 104.298 308
  CHANNELS 6 Xposition Yposition Zposition Zrotation Xrotation Yrotation
  JOINT RightUpLeg
  {
    OFFSET -8.9458 -8.66707 0.101652
    CHANNELS 3 Zrotation Xrotation Yrotation
    JOINT RightLeg
    {
      OFFSET 0 -44.4227 1.3727
      CHANNELS 3 Zrotation Xrotation Yrotation
      JOINT RightFoot
      {
        OFFSET 0.253549 -42.0924 -1.46059
        CHANNELS 3 Zrotation Xrotation Yrotation
        JOINT RightToes
        {
          OFFSET 0.04 -4.41509 8.4991
          CHANNELS 3 Zrotation Xrotation Yrotation
          End Site
          {
            OFFSET -0.08 -0.137448 9.77979
          }
        }
      }
    }
  }
  JOINT Spine
  {
    OFFSET 0 11.8905 0
    CHANNELS 3 Zrotation Xrotation Yrotation
    JOINT Spine1
    {
      OFFSET 0 25.6574 0.127663
      CHANNELS 3 Zrotation Xrotation Yrotation
      JOINT HEad
      {
        OFFSET 0 8.73416 0.011341
        CHANNELS 3 Zrotation Xrotation Yrotation
        End Site
        {
          OFFSET -0.29 12.7742 2.51395
        }
      }
      JOINT LeftShoulder1
      {
        OFFSET 8.99 -0.362252 -0.22
        CHANNELS 3 Zrotation Xrotation Yrotation
        JOINT LeftArm
        {
          OFFSET 10.2827 -0.00338 0.322123
          CHANNELS 3 Zrotation Xrotation Yrotation
          JOINT LeftForeArm
          {
            OFFSET 32.7669 0.099144 -1.42434
            CHANNELS 3 Zrotation Xrotation Yrotation
            JOINT LeftHand
            {
              OFFSET 27.5643 0.085362 1.02216
              CHANNELS 3 Zrotation Xrotation Yrotation
              End Site
              {
                OFFSET 16.7443 -0.6 1.50291
              }
            }
          }
        }
      }
      JOINT RightShoulder
      {
        OFFSET -8.99 -0.362252 -0.22
        CHANNELS 3 Zrotation Xrotation Yrotation
        JOINT RightArm
        {
          OFFSET -10.2827 -0.00338 0.322123
          CHANNELS 3 Zrotation Xrotation Yrotation
          JOINT RightForeArm
          {
            OFFSET -32.8971 0.099144 -1.42434
            CHANNELS 3 Zrotation Xrotation Yrotation
            JOINT RightHand
            {
              OFFSET -27.4921 0.085362 1.02216
              CHANNELS 3 Zrotation Xrotation Yrotation
              End Site
              {
                OFFSET -16.6312 -0.6 1.50291
              }
            }
          }
        }
      }
    }
  }
  JOINT LeftUpLeg
  {
    OFFSET 8.9458 -8.66707 0.101652
    CHANNELS 3 Zrotation Xrotation Yrotation
    JOINT LeftLeg
    {
      OFFSET 0 -44.4227 1.3727
      CHANNELS 3 Zrotation Xrotation Yrotation
      JOINT LeftFoot
      {
        OFFSET -0.253549 -42.0924 -1.46059
        CHANNELS 3 Zrotation Xrotation Yrotation
        JOINT LeftToes
        {
          OFFSET -0.04 -4.41509 8.4991
          CHANNELS 3 Zrotation Xrotation Yrotation
          End Site
          {
            OFFSET 0.08 -0.047448 9.77979
          }
        }
      }
    }
  }
}
MOTION
Frames:	16
Frame Time:	0.0166667
0	104.061	0	0.571982	0.284884	160.765	-0.0324529	-0.859032	2.06938	-0.31236	9.75625	4.59601	2.33899	-8.39347	-4.32992	0.0462048	0.000533964	0.662642	-0.156399	-3.23085	-0.953569	-0.367614	-6.45584	-1.9208	2.14818	12.7195	17.5552	-1.19E-15	0.00E+00	3.18E-15	4.35439	-12.7639	-4.63005	-1.71157	12.2924	-2.1436	0.32618	9.4785	4.36915	-1.19E-15	0.00E+00	3.18E-15	-3.81429	-12.4284	0.222621	3.17545	10.1471	-5.77634	0.852825	13.3952	-7.42503	-1.34665	1.00838	16.632	1.45222	9.88911	6.80405	-7.88404	-24.8666	-2.00848	1.42E-14	3.18E-14	6.76E-15
-0.002	104.059	0.006	0.577423	0.310393	160.747	-0.0281417	-0.840683	2.09928	-0.318332	9.76563	4.58507	2.3383	-8.38499	-4.07374	0.0462048	0.000533964	0.662642	-0.152407	-3.23388	-0.950767	-0.359505	-6.46198	-1.91497	2.11647	12.7451	17.596	-3.98E-16	0.00E+00	0.00E+00	4.36902	-12.7563	-4.5943	-1.71796	12.2989	-2.15604	0.290805	9.47111	4.38302	-3.98E-16	0.00E+00	0.00E+00	-3.78551	-12.387	0.263184	3.17246	10.1189	-5.77546	0.821216	13.3833	-7.4176	-1.35072	1.03106	16.6222	1.44972	9.89599	6.83278	-7.88904	-24.8648	-2.01798	1.30E-14	2.86E-14	6.36E-15
-0.001	104.06	0.015	0.583794	0.339899	160.735	-0.029156	-0.819045	2.12742	-0.316885	9.7785	4.57534	2.33644	-8.38533	-4.02507	0.0462048	0.000533964	0.662642	-0.149716	-3.23566	-0.950682	-0.353292	-6.4659	-1.91054	2.09208	12.7681	17.6284	-3.98E-16	1.59E-15	3.18E-15	4.38114	-12.7359	-4.57438	-1.72311	12.3011	-2.17229	0.247162	9.48557	4.38818	-3.98E-16	1.59E-15	3.18E-15	-3.76135	-12.3337	0.297615	3.17702	10.149	-5.77633	0.818827	13.364	-7.42035	-1.35269	1.05768	16.6348	1.44794	9.90085	6.8452	-7.89169	-24.8599	-2.02909	1.34E-14	2.70E-14	5.57E-15
0.001	104.06	0.024	0.589826	0.37334	160.738	-0.0325443	-0.794172	2.13406	-0.3162	9.79502	4.57261	2.33481	-8.39447	-4.12209	0.0462048	0.000533964	0.662642	-0.14767	-3.23685	-0.951722	-0.349671	-6.46795	-1.91139	2.07576	12.7885	17.6608	7.95E-16	1.59E-15	6.36E-15	4.39342	-12.6853	-4.57611	-1.72558	12.2961	-2.17489	0.245166	9.49276	4.38986	7.95E-16	1.59E-15	6.36E-15	-3.73377	-12.2921	0.329498	3.18659	10.2207	-5.77825	0.836132	13.3692	-7.42504	-1.34962	1.0891	16.6491	1.43982	9.90465	6.84391	-7.8914	-24.8529	-2.03646	1.42E-14	3.18E-14	7.16E-15
0.004	104.06	0.034	0.596372	0.406765	160.758	-0.0423879	-0.766528	2.11406	-0.310125	9.80932	4.58247	2.33245	-8.4037	-4.26531	0.0462048	0.000533964	0.662642	-0.146278	-3.23818	-0.953593	-0.347511	-6.47022	-1.91723	2.06915	12.8116	17.6817	1.19E-15	0.00E+00	3.18E-15	4.40959	-12.6288	-4.60123	-1.72331	12.2803	-2.16551	0.273355	9.4924	4.38894	1.19E-15	0.00E+00	3.18E-15	-3.72742	-12.2603	0.341937	3.1981	10.3114	-5.78073	0.847099	13.382	-7.40854	-1.34388	1.12186	16.6605	1.43136	9.90841	6.82768	-7.88776	-24.8447	-2.03828	1.39E-14	3.18E-14	5.96E-15
0.006	104.061	0.046	0.603027	0.43959	160.788	-0.0540723	-0.739473	2.09174	-0.301302	9.82276	4.58804	2.32964	-8.41497	-4.49804	0.0462048	0.000533964	0.662642	-0.144391	-3.24036	-0.956	-0.345318	-6.47505	-1.92509	2.06642	12.8434	17.6918	-7.95E-16	1.59E-15	3.18E-15	4.41842	-12.5954	-4.64924	-1.72326	12.2626	-2.14585	0.298038	9.48921	4.38636	-7.95E-16	1.59E-15	3.18E-15	-3.72603	-12.2382	0.349866	3.20387	10.3533	-5.78246	0.85663	13.4111	-7.3769	-1.33965	1.14988	16.673	1.42923	9.91259	6.80586	-7.88315	-24.8367	-2.04197	1.51E-14	2.86E-14	6.36E-15
0.008	104.061	0.058	0.607441	0.462122	160.822	-0.0550474	-0.725352	2.07897	-0.301447	9.83749	4.57758	2.32927	-8.40902	-4.24551	0.0462048	0.000533964	0.662642	-0.142345	-3.24446	-0.959843	-0.341282	-6.48327	-1.93269	2.06479	12.8739	17.6953	3.98E-16	0.00E+00	-6.36E-15	4.42124	-12.5907	-4.6966	-1.72625	12.2794	-2.14143	0.305184	9.48874	4.38307	3.98E-16	0.00E+00	-6.36E-15	-3.73308	-12.2324	0.353706	3.20455	10.3507	-5.78342	0.874526	13.4276	-7.35977	-1.33547	1.16553	16.6705	1.42637	9.91654	6.80373	-7.8809	-24.8278	-2.04448	1.43E-14	3.02E-14	6.76E-15
0.009	104.062	0.071	0.611192	0.480527	160.857	-0.0552021	-0.714099	2.07392	-0.304213	9.84993	4.55644	2.3274	-8.41158	-4.21619	0.0462048	0.000533964	0.662642	-0.140414	-3.2494	-0.96274	-0.336712	-6.49319	-1.94009	2.06112	12.9083	17.6917	7.95E-16	1.59E-15	6.36E-15	4.42906	-12.5825	-4.73643	-1.73199	12.3136	-2.15914	0.300104	9.4956	4.37647	7.95E-16	1.59E-15	6.36E-15	-3.74351	-12.2137	0.357731	3.20469	10.342	-5.78422	0.896028	13.4013	-7.36914	-1.33133	1.17267	16.667	1.42589	9.91974	6.79485	-7.87679	-24.8227	-2.0417	1.55E-14	2.86E-14	5.17E-15
0.009	104.063	0.083	0.615276	0.497363	160.895	-0.0549968	-0.703184	2.0703	-0.305173	9.86095	4.53926	2.32541	-8.42086	-4.34084	0.0462048	0.000533964	0.662642	-0.139048	-3.25277	-0.965779	-0.333898	-6.4995	-1.94441	2.05817	12.9298	17.6808	7.95E-16	0.00E+00	0.00E+00	4.44085	-12.5574	-4.78575	-1.73444	12.3208	-2.18675	0.297908	9.50903	4.35612	7.95E-16	0.00E+00	0.00E+00	-3.74982	-12.1875	0.358469	3.20781	10.363	-5.78547	0.911008	13.3859	-7.3798	-1.32984	1.17801	16.6589	1.4273	9.92155	6.77453	-7.8675	-24.8191	-2.03158	1.41E-14	3.02E-14	5.17E-15
0.009	104.063	0.094	0.618732	0.510573	160.933	-0.0549824	-0.695554	2.06491	-0.298928	9.86854	4.5229	2.32167	-8.42048	-4.25353	0.0462048	0.000533964	0.662642	-0.138235	-3.25517	-0.970193	-0.32945	-6.50476	-1.95314	2.05612	12.9461	17.665	-3.98E-16	0.00E+00	0.00E+00	4.44171	-12.507	-4.83768	-1.72467	12.2995	-2.20985	0.309751	9.51252	4.34909	-3.98E-16	0.00E+00	0.00E+00	-3.76479	-12.1599	0.357649	3.21326	10.4092	-5.78698	0.917762	13.3999	-7.37122	-1.32973	1.18407	16.6457	1.42725	9.92257	6.75725	-7.85775	-24.8116	-2.02443	1.45E-14	3.18E-14	5.17E-15
0.01	104.064	0.104	0.62149	0.522596	160.973	-0.0558031	-0.690512	2.05764	-0.290977	9.87801	4.50856	2.31924	-8.41932	-4.13641	0.0462048	0.000533964	0.662642	-0.137522	-3.25628	-0.974875	-0.323945	-6.50702	-1.96237	2.05857	12.9491	17.6433	-2.65E-31	4.77E-15	3.18E-15	4.44824	-12.4701	-4.89396	-1.7265	12.2912	-2.2205	0.333951	9.51404	4.34934	-2.65E-31	4.77E-15	3.18E-15	-3.77992	-12.1349	0.356319	3.21828	10.4556	-5.78823	0.901434	13.407	-7.35713	-1.32903	1.18826	16.6289	1.42824	9.92304	6.74001	-7.84909	-24.8058	-2.01971	1.49E-14	3.02E-14	5.57E-15
0.01	104.066	0.114	0.624089	0.53744	161.009	-0.0589634	-0.678474	2.04785	-0.285165	9.88147	4.49943	2.31615	-8.42477	-4.21882	0.0462048	0.000533964	0.662642	-0.136913	-3.25787	-0.979405	-0.314123	-6.50875	-1.97117	2.05614	12.9678	17.6258	3.98E-16	0.00E+00	0.00E+00	4.44927	-12.426	-4.93749	-1.7309	12.2985	-2.23615	0.344882	9.515	4.34741	3.98E-16	0.00E+00	0.00E+00	-3.81292	-12.0881	0.355487	3.22041	10.48	-5.78871	0.873994	13.3955	-7.34006	-1.33018	1.19843	16.6086	1.42729	9.9229	6.73567	-7.84201	-24.7987	-2.01732	1.41E-14	3.66E-14	4.37E-15
0.011	104.068	0.127	0.624565	0.553464	161.038	-0.0692139	-0.667327	2.04242	-0.276375	9.8873	4.48826	2.31501	-8.44553	-4.59685	0.0462048	0.000533964	0.662642	-0.136322	-3.25962	-0.982434	-0.306098	-6.5102	-1.97701	2.05656	12.9816	17.6151	0.00E+00	1.59E-15	0.00E+00	4.44171	-12.3897	-4.96365	-1.73538	12.3049	-2.25377	0.316975	9.51553	4.33785	0.00E+00	1.59E-15	0.00E+00	-3.84408	-12.0668	0.356255	3.21964	10.4841	-5.78832	0.864337	13.3896	-7.3229	-1.33117	1.20672	16.5959	1.42544	9.92261	6.73002	-7.8375	-24.7899	-2.01581	1.49E-14	3.02E-14	5.96E-15
0.012	104.07	0.139	0.622307	0.563209	161.06	-0.078219	-0.665151	2.03685	-0.270451	9.89133	4.47963	2.31382	-8.4475	-4.54501	0.0462048	0.000533964	0.662642	-0.135751	-3.2615	-0.98406	-0.303314	-6.5121	-1.97994	2.06995	12.9766	17.603	-3.98E-16	0.00E+00	-6.36E-15	4.4454	-12.3729	-4.99512	-1.7374	12.322	-2.25574	0.294824	9.51541	4.34433	-3.98E-16	0.00E+00	-6.36E-15	-3.84734	-12.0612	0.360357	3.21671	10.4767	-5.78726	0.853383	13.3857	-7.31958	-1.3313	1.2103	16.5934	1.42201	9.92248	6.71751	-7.82977	-24.7823	-2.01357	1.55E-14	3.02E-14	6.76E-15
0.013	104.072	0.151	0.615749	0.561887	161.087	-0.0875977	-0.674144	2.02372	-0.262958	9.89603	4.4707	2.31078	-8.44777	-4.54846	0.0462048	0.000533964	0.662642	-0.135259	-3.26348	-0.985403	-0.302069	-6.51521	-1.98124	2.08591	12.9816	17.5836	0.00E+00	0.00E+00	-6.36E-15	4.4479	-12.3543	-5.02933	-1.74048	12.3356	-2.24189	0.307139	9.51478	4.36231	0.00E+00	0.00E+00	-6.36E-15	-3.85712	-12.0325	0.366337	3.21415	10.4836	-5.78617	0.859938	13.3756	-7.33039	-1.32815	1.20146	16.5921	1.41926	9.92203	6.69887	-7.82084	-24.7746	-2.0093	1.57E-14	3.34E-14	6.36E-15
0.015	104.074	0.162	0.608109	0.556072	161.107	-0.09722	-0.687831	2.00728	-0.256175	9.8996	4.46903	2.308	-8.44744	-4.55985	0.0462048	0.000533964	0.662642	-0.134844	-3.26551	-0.986492	-0.302202	-6.52108	-1.98191	2.09604	12.9973	17.5624	-3.98E-16	-1.59E-15	3.18E-15	4.43516	-12.3462	-5.0584	-1.74123	12.3428	-2.23056	0.311269	9.51395	4.37277	-3.98E-16	-1.59E-15	3.18E-15	-3.85127	-12.014	0.373582	3.20863	10.4994	-5.78507	0.868175	13.3737	-7.33688	-1.32449	1.18884	16.5961	1.41974	9.92094	6.67294	-7.81237	-24.7689	-2.00261	1.45E-14	3.18E-14	6.36E-15
